<?xml version="1.0" encoding="utf-8"?>
<!-- Generator: Adobe Illustrator 18.0.0, SVG Export Plug-In . SVG Version: 6.00 Build 0)  -->
<!DOCTYPE svg PUBLIC "-//W3C//DTD SVG 1.1//EN" "http://www.w3.org/Graphics/SVG/1.1/DTD/svg11.dtd">
<svg version="1.1" id="Layer_1" xmlns="http://www.w3.org/2000/svg" xmlns:xlink="http://www.w3.org/1999/xlink" x="0px" y="0px"
	 viewBox="4.4 120 570.9 558.3" enable-background="new 4.4 120 570.9 558.3" xml:space="preserve">
<path fill="#FFFFFF" d="M250.5,555.4c-0.1-9.3-1.1-18.4-3.2-27.5c-2.1-8.9-5-17.9-9.1-26c-4.1-8.2-8.9-16.3-14.8-23.5
	c-5.9-7.1-12.3-13.8-19.7-19.6c-7.4-5.7-15.1-10.8-23.6-14.7c-8.4-3.9-17.1-7-26.2-9c-9.1-2-18.4-3.1-27.8-2.9
	c-9.2,0.1-18.5,1.2-27.5,3.4c-9,2.2-17.8,5.3-26.1,9.4c-8.4,4.1-16.2,9.3-23.4,15.2c-7.2,5.8-13.5,12.6-19.2,19.9
	c-5.8,7.4-10.5,15.5-14.5,24c-3.9,8.5-6.7,17.3-8.7,26.4s-2.6,18.4-2.4,27.7c0.1,9.3,1.5,18.7,3.9,27.7c2.4,9.1,5.7,17.7,9.9,26
	c4.1,8.4,9.6,16,15.5,23c5.9,7.1,12.9,13.4,20.3,18.9c7.4,5.6,15.5,10.1,24,14s17.3,6.4,26.4,8.1c9.1,1.8,18.4,2.4,27.6,2.1
	c9.3-0.4,18.5-1.7,27.4-4.1c8.9-2.4,17.7-5.7,25.7-10.1c8.1-4.4,16-9.6,22.9-15.7c7-6.1,13.5-13,18.9-20.6
	c5.4-7.6,10.1-15.6,13.6-24.2c3.6-8.7,6.3-17.7,7.9-26.8C249.8,569.5,250.5,562.5,250.5,555.4z"/>
<path fill="#FFFFFF" d="M409.5,507.1c-0.2-1.9-0.5-3.7-0.9-5.5c-0.1-0.6-0.2-1.1-0.3-1.7c-1.7-9.3-4-18.4-6.7-27.2
	c-3.4-10.7-6.2-18.8-9.3-26.3c-4.1-9.8-7.9-17.8-11.9-25.3c-4.2-7.9-9-16-14.3-24c-5.5-8.4-11.2-16.1-16.7-22.7
	c-6.9-8.4-12.9-15-18.9-20.9c-6.6-6.6-13.4-12.8-20.6-18.7c-8-6.6-15.5-12.2-22.7-16.9c-9.6-6.3-17-10.8-24.3-14.6
	c-6.9-3.6-16-8.2-25.6-12.2c-3.6-1.5-7.3-2.9-10.9-4.3c-0.1,0-0.1,0-0.2-0.1c-1.6-0.5-3.3-1.1-4.9-1.6c-2.3-0.8-4.7-1.6-7.2-2.3
	l-0.2,0c-1.9-0.5-3.9-0.9-6-0.9c-0.4,0-0.9,0-1.3,0.1c-3,0.3-5.6,0.9-8,2.1c-2.3,1.1-4.3,2.6-6.5,4.8c-0.7,0.7-1.3,1.5-1.8,2.2
	c-0.2,0.3-0.4,0.5-0.6,0.8c-0.3,0.5-1.4,2-1.8,3.8c-0.7,2.2-1.5,4.9-1.4,7.7c0.1,3,0.6,5.5,1.7,8.1c1.8,5,6.1,9.4,10.8,11.2
	c2.6,1.1,5.2,1.9,7.7,2.8c1.9,0.6,3.8,1.3,5.7,2c4,1.5,8,3.1,12.3,5c7.9,3.4,15.9,7.5,24.4,12.3c7.3,4.2,14.9,9.2,23.1,15.1
	c7.2,5.3,14.3,11.2,21.2,17.6c6.7,6.3,12.9,12.8,18.9,19.8c6.8,7.9,12.2,15.1,16.8,22c5.2,7.9,9.9,15.8,14,23.5
	c4,7.6,7.8,16.1,11.4,25.2c3,7.6,5.7,16,8.5,26.3c1,3.8,1.9,7.9,2.9,13c0.1,0.6,0.2,1.2,0.3,1.8c0.3,1.8,0.6,3.7,1.1,5.4
	c0.7,2.6,1.8,5,3.5,7.5c1.5,2.3,3.7,3.9,5.6,5.4c2.1,1.5,5,2.7,7.3,3c1.8,0.3,3.2,0.4,4.6,0.5c1.3,0,2.4-0.1,3.6-0.4
	c2.9-0.5,5.2-1.6,7.7-3c4.4-2.5,8.1-7.5,9.3-12.4C409.4,512.9,409.9,510.1,409.5,507.1z"/>
<path fill="#FFFFFF" d="M574.5,517.5C574.5,517.5,574.5,517.5,574.5,517.5c-1.2-8.7-2.4-16.8-3.9-24.6c-1.6-8.5-3.5-17.4-6-27.2
	c-2-8.2-4.4-17.7-7.6-27c-2.8-8.5-5.8-17.6-9.1-26.5c-3.3-8.6-6.9-17.4-10.7-25.9c-3.5-7.8-7.4-15.9-12.3-25.4
	c-4.9-9.4-9.4-17.4-13.8-24.7c-4-6.6-9.4-15.3-15.3-23.8c-4.7-6.8-10-14-16.7-22.8c-5.3-6.9-11.2-14-18-21.7
	c-6.1-6.9-12.5-13.7-19-20.3c-6.8-6.9-14-13.5-20.2-19.1c-7-6.5-14.7-12.6-21.4-18.1c-7.4-6-15-11.6-22.5-16.7
	c-8.4-5.8-16.9-11.3-23.4-15.4c-6.8-4.3-14.5-8.8-24.3-14c-7.6-4.1-16-8.2-25-12.4c-7.4-3.5-15.3-6.9-25.8-11.1
	c-9.2-3.6-18-6.8-26.3-9.4c-9.5-3.1-18.2-5.6-26.8-7.9c-1.2-0.3-2.4-0.6-3.6-1c-3.4-0.9-6.9-1.9-10.5-2.4c-2.7-0.3-5.2-0.3-8.2,0.2
	c-2.5,0.4-4.5,1.5-6.3,2.5l-0.8,0.4c-1.7,0.8-3,2.3-3.3,2.7l-0.4,0.5c-0.7,0.8-1.5,1.6-2,2.6c-1.2,2-2.6,4.4-3.2,7.6
	c-0.6,2.6-0.6,5.2-0.3,8.2c0.1,1.2,0.4,2.2,0.7,3.1c0.1,0.2,0.1,0.4,0.2,0.6c0.4,1.3,1.2,2.9,1.8,3.8l0.1,0.2c1.4,1.9,2.9,4,5.1,5.6
	c2.4,1.7,4.7,2.9,7.3,3.7c1.5,0.5,3,0.8,4.4,1.1c0.7,0.2,1.4,0.3,2,0.5c1.1,0.3,2.1,0.5,3.1,0.8c1.3,0.3,2.6,0.6,3.9,1
	c8.8,2.4,17.5,5,26.6,7.9c8.6,2.8,17.3,6,25.9,9.6c8.8,3.7,17.4,7.5,25.4,11.3c7.2,3.5,14.8,7.4,24.6,12.9
	c7.2,4.1,14.6,8.6,23.5,14.4c7.9,5.1,15.5,10.7,22.6,16c6.5,4.8,13.5,10.5,21.4,17.3c7.6,6.5,14.2,12.6,20.3,18.6
	c7.1,7,13.4,13.5,19,19.8c6.1,6.8,12,13.9,17.6,21.1c5,6.4,10.9,14,16.4,22.2c5.1,7.5,10.3,15.3,14.9,23.2c4.7,8,9.3,15.9,13.3,24.1
	c4.8,9.5,8.5,17.5,11.8,24.9c3.6,8.4,7,16.9,10.2,25.7c2.9,8,5.7,16.7,8.6,26.6c2.4,8.2,4.7,17.2,6.7,26.8c2.4,10.8,3.9,19.2,5,27.2
	c0.2,1.2,0.3,2.5,0.5,3.7c0.2,1.2,0.4,2.4,0.5,3.6c0.1,0.6,0.2,1.2,0.2,1.9c0.2,1.7,0.4,3.5,0.9,5.3c1.5,5,5,9.4,9.9,12.4
	c2.5,1.5,4.9,2.1,7.7,2.7c0.8,0.2,1.5,0.2,2.2,0.2c0.3,0,0.6,0,0.9,0c0.2,0,0.5,0,0.7,0c0.9,0,2.6-0.1,4.1-0.6l0.6-0.2
	c2.1-0.7,4.4-1.5,6.5-3.1c2.6-1.8,4.4-4,5.7-5.9c2.2-3.1,3.3-6.9,3.4-11.5c0.2,0,0.5-0.1,0.7-0.1L574.5,517.5z"/>
</svg>
